<svg width="1200" height="360" viewBox="0 0 1200 360" xmlns="http://www.w3.org/2000/svg" role="img">
<title>Field Methods — Forest Carbon Workshop</title>
<desc>Illustration of a Canadian forest stand above a layered soil profile, headed "Field Methods".</desc>
<defs>
  <linearGradient id="sky" x1="0" y1="0" x2="0" y2="1">
    <stop offset="0%" stop-color="#d3e6f4"/><stop offset="100%" stop-color="#9dc5de"/>
  </linearGradient>
  <linearGradient id="air" x1="0" y1="0" x2="0" y2="1">
    <stop offset="0%" stop-color="#a9cfe4"/><stop offset="55%" stop-color="#7fb4d0"/><stop offset="100%" stop-color="#5e97b8"/>
  </linearGradient>
  <linearGradient id="soil" x1="0" y1="0" x2="0" y2="1">
    <stop offset="0%" stop-color="#6b5436"/><stop offset="30%" stop-color="#5a4429"/>
    <stop offset="70%" stop-color="#3d2c1a"/><stop offset="100%" stop-color="#241a0f"/>
  </linearGradient>
</defs>
<rect x="0" y="0" width="1200" height="96" fill="url(#sky)"/>
<rect x="0" y="96" width="1200" height="172" fill="url(#air)"/>
<rect x="0" y="268" width="1200" height="92" fill="url(#soil)"/>
<circle cx="1046" cy="52" r="25" fill="#fff4d6" opacity="0.85"/>
<g opacity="0.22" stroke="#ffffff" stroke-width="2" fill="none" stroke-linecap="round">
  <path d="M0 54 Q 60 40 120 54 T 240 54 T 360 54"/>
  <path d="M690 36 Q 750 22 810 36 T 930 36"/>
</g>
<path d="M-2 249 L20 219 L42 249 Z" fill="#20503c" opacity="0.4"/><path d="M3 225 L20 194 L37 225 Z" fill="#20503c" opacity="0.4"/><path d="M8 200 L20 169 L32 200 Z" fill="#20503c" opacity="0.4"/><path d="M13 175 L20 144 L27 175 Z" fill="#20503c" opacity="0.4"/><rect x="17" y="247" width="6" height="21" fill="#4a3728" opacity="0.4"/><path d="M44 251 L66 222 L88 251 Z" fill="#20503c" opacity="0.4"/><path d="M49 228 L66 199 L83 228 Z" fill="#20503c" opacity="0.4"/><path d="M54 205 L66 176 L78 205 Z" fill="#20503c" opacity="0.4"/><path d="M59 182 L66 153 L73 182 Z" fill="#20503c" opacity="0.4"/><rect x="63" y="249" width="6" height="19" fill="#4a3728" opacity="0.4"/><path d="M90 252 L112 225 L134 252 Z" fill="#20503c" opacity="0.4"/><path d="M95 231 L112 204 L129 231 Z" fill="#20503c" opacity="0.4"/><path d="M100 209 L112 183 L124 209 Z" fill="#20503c" opacity="0.4"/><path d="M105 188 L112 161 L119 188 Z" fill="#20503c" opacity="0.4"/><rect x="109" y="250" width="6" height="18" fill="#4a3728" opacity="0.4"/><path d="M136 251 L158 223 L180 251 Z" fill="#20503c" opacity="0.4"/><path d="M141 229 L158 201 L175 229 Z" fill="#20503c" opacity="0.4"/><path d="M146 207 L158 179 L170 207 Z" fill="#20503c" opacity="0.4"/><path d="M151 184 L158 156 L165 184 Z" fill="#20503c" opacity="0.4"/><rect x="155" y="249" width="6" height="19" fill="#4a3728" opacity="0.4"/><path d="M182 252 L204 226 L226 252 Z" fill="#20503c" opacity="0.4"/><path d="M187 231 L204 205 L221 231 Z" fill="#20503c" opacity="0.4"/><path d="M192 210 L204 184 L216 210 Z" fill="#20503c" opacity="0.4"/><path d="M197 189 L204 162 L211 189 Z" fill="#20503c" opacity="0.4"/><rect x="201" y="250" width="6" height="18" fill="#4a3728" opacity="0.4"/><path d="M228 253 L250 229 L272 253 Z" fill="#20503c" opacity="0.4"/><path d="M233 234 L250 210 L267 234 Z" fill="#20503c" opacity="0.4"/><path d="M238 215 L250 190 L262 215 Z" fill="#20503c" opacity="0.4"/><path d="M243 195 L250 171 L257 195 Z" fill="#20503c" opacity="0.4"/><rect x="247" y="252" width="6" height="16" fill="#4a3728" opacity="0.4"/><path d="M274 249 L296 218 L318 249 Z" fill="#20503c" opacity="0.4"/><path d="M279 224 L296 193 L313 224 Z" fill="#20503c" opacity="0.4"/><path d="M284 199 L296 168 L308 199 Z" fill="#20503c" opacity="0.4"/><path d="M289 174 L296 143 L303 174 Z" fill="#20503c" opacity="0.4"/><rect x="293" y="247" width="6" height="21" fill="#4a3728" opacity="0.4"/><path d="M320 252 L342 226 L364 252 Z" fill="#20503c" opacity="0.4"/><path d="M325 231 L342 205 L359 231 Z" fill="#20503c" opacity="0.4"/><path d="M330 211 L342 184 L354 211 Z" fill="#20503c" opacity="0.4"/><path d="M335 190 L342 164 L349 190 Z" fill="#20503c" opacity="0.4"/><rect x="339" y="251" width="6" height="17" fill="#4a3728" opacity="0.4"/><path d="M366 254 L388 231 L410 254 Z" fill="#20503c" opacity="0.4"/><path d="M371 236 L388 213 L405 236 Z" fill="#20503c" opacity="0.4"/><path d="M376 217 L388 194 L400 217 Z" fill="#20503c" opacity="0.4"/><path d="M381 199 L388 176 L395 199 Z" fill="#20503c" opacity="0.4"/><rect x="385" y="253" width="6" height="15" fill="#4a3728" opacity="0.4"/><path d="M412 255 L434 234 L456 255 Z" fill="#20503c" opacity="0.4"/><path d="M417 238 L434 217 L451 238 Z" fill="#20503c" opacity="0.4"/><path d="M422 221 L434 200 L446 221 Z" fill="#20503c" opacity="0.4"/><path d="M427 204 L434 183 L441 204 Z" fill="#20503c" opacity="0.4"/><rect x="431" y="254" width="6" height="14" fill="#4a3728" opacity="0.4"/><path d="M458 253 L480 227 L502 253 Z" fill="#20503c" opacity="0.4"/><path d="M463 232 L480 207 L497 232 Z" fill="#20503c" opacity="0.4"/><path d="M468 212 L480 186 L492 212 Z" fill="#20503c" opacity="0.4"/><path d="M473 192 L480 166 L487 192 Z" fill="#20503c" opacity="0.4"/><rect x="477" y="251" width="6" height="17" fill="#4a3728" opacity="0.4"/><path d="M504 251 L526 223 L548 251 Z" fill="#20503c" opacity="0.4"/><path d="M509 229 L526 200 L543 229 Z" fill="#20503c" opacity="0.4"/><path d="M514 206 L526 178 L538 206 Z" fill="#20503c" opacity="0.4"/><path d="M519 183 L526 155 L533 183 Z" fill="#20503c" opacity="0.4"/><rect x="523" y="249" width="6" height="19" fill="#4a3728" opacity="0.4"/><path d="M550 251 L572 222 L594 251 Z" fill="#20503c" opacity="0.4"/><path d="M555 228 L572 199 L589 228 Z" fill="#20503c" opacity="0.4"/><path d="M560 205 L572 176 L584 205 Z" fill="#20503c" opacity="0.4"/><path d="M565 182 L572 153 L579 182 Z" fill="#20503c" opacity="0.4"/><rect x="569" y="249" width="6" height="19" fill="#4a3728" opacity="0.4"/><path d="M596 253 L618 227 L640 253 Z" fill="#20503c" opacity="0.4"/><path d="M601 232 L618 206 L635 232 Z" fill="#20503c" opacity="0.4"/><path d="M606 211 L618 185 L630 211 Z" fill="#20503c" opacity="0.4"/><path d="M611 191 L618 165 L625 191 Z" fill="#20503c" opacity="0.4"/><rect x="615" y="251" width="6" height="17" fill="#4a3728" opacity="0.4"/><path d="M642 250 L664 219 L686 250 Z" fill="#20503c" opacity="0.4"/><path d="M647 225 L664 195 L681 225 Z" fill="#20503c" opacity="0.4"/><path d="M652 201 L664 170 L676 201 Z" fill="#20503c" opacity="0.4"/><path d="M657 176 L664 146 L671 176 Z" fill="#20503c" opacity="0.4"/><rect x="661" y="248" width="6" height="20" fill="#4a3728" opacity="0.4"/><path d="M688 252 L710 225 L732 252 Z" fill="#20503c" opacity="0.4"/><path d="M693 230 L710 203 L727 230 Z" fill="#20503c" opacity="0.4"/><path d="M698 209 L710 182 L722 209 Z" fill="#20503c" opacity="0.4"/><path d="M703 187 L710 160 L717 187 Z" fill="#20503c" opacity="0.4"/><rect x="707" y="250" width="6" height="18" fill="#4a3728" opacity="0.4"/><path d="M734 251 L756 222 L778 251 Z" fill="#20503c" opacity="0.4"/><path d="M739 228 L756 200 L773 228 Z" fill="#20503c" opacity="0.4"/><path d="M744 205 L756 177 L768 205 Z" fill="#20503c" opacity="0.4"/><path d="M749 182 L756 154 L763 182 Z" fill="#20503c" opacity="0.4"/><rect x="753" y="249" width="6" height="19" fill="#4a3728" opacity="0.4"/><path d="M780 254 L802 231 L824 254 Z" fill="#20503c" opacity="0.4"/><path d="M785 235 L802 212 L819 235 Z" fill="#20503c" opacity="0.4"/><path d="M790 217 L802 193 L814 217 Z" fill="#20503c" opacity="0.4"/><path d="M795 198 L802 174 L809 198 Z" fill="#20503c" opacity="0.4"/><rect x="799" y="252" width="6" height="16" fill="#4a3728" opacity="0.4"/><path d="M826 249 L848 218 L870 249 Z" fill="#20503c" opacity="0.4"/><path d="M831 224 L848 192 L865 224 Z" fill="#20503c" opacity="0.4"/><path d="M836 199 L848 167 L860 199 Z" fill="#20503c" opacity="0.4"/><path d="M841 174 L848 142 L855 174 Z" fill="#20503c" opacity="0.4"/><rect x="845" y="247" width="6" height="21" fill="#4a3728" opacity="0.4"/><path d="M872 255 L894 233 L916 255 Z" fill="#20503c" opacity="0.4"/><path d="M877 237 L894 215 L911 237 Z" fill="#20503c" opacity="0.4"/><path d="M882 220 L894 198 L906 220 Z" fill="#20503c" opacity="0.4"/><path d="M887 202 L894 180 L901 202 Z" fill="#20503c" opacity="0.4"/><rect x="891" y="253" width="6" height="15" fill="#4a3728" opacity="0.4"/><path d="M918 254 L940 231 L962 254 Z" fill="#20503c" opacity="0.4"/><path d="M923 235 L940 212 L957 235 Z" fill="#20503c" opacity="0.4"/><path d="M928 217 L940 193 L952 217 Z" fill="#20503c" opacity="0.4"/><path d="M933 198 L940 174 L947 198 Z" fill="#20503c" opacity="0.4"/><rect x="937" y="252" width="6" height="16" fill="#4a3728" opacity="0.4"/><path d="M964 253 L986 229 L1008 253 Z" fill="#20503c" opacity="0.4"/><path d="M969 234 L986 209 L1003 234 Z" fill="#20503c" opacity="0.4"/><path d="M974 214 L986 189 L998 214 Z" fill="#20503c" opacity="0.4"/><path d="M979 194 L986 170 L993 194 Z" fill="#20503c" opacity="0.4"/><rect x="983" y="252" width="6" height="16" fill="#4a3728" opacity="0.4"/><path d="M1010 254 L1032 230 L1054 254 Z" fill="#20503c" opacity="0.4"/><path d="M1015 235 L1032 211 L1049 235 Z" fill="#20503c" opacity="0.4"/><path d="M1020 216 L1032 192 L1044 216 Z" fill="#20503c" opacity="0.4"/><path d="M1025 197 L1032 173 L1039 197 Z" fill="#20503c" opacity="0.4"/><rect x="1029" y="252" width="6" height="16" fill="#4a3728" opacity="0.4"/><path d="M1056 249 L1078 218 L1100 249 Z" fill="#20503c" opacity="0.4"/><path d="M1061 224 L1078 193 L1095 224 Z" fill="#20503c" opacity="0.4"/><path d="M1066 199 L1078 168 L1090 199 Z" fill="#20503c" opacity="0.4"/><path d="M1071 174 L1078 143 L1085 174 Z" fill="#20503c" opacity="0.4"/><rect x="1075" y="247" width="6" height="21" fill="#4a3728" opacity="0.4"/><path d="M1102 249 L1124 218 L1146 249 Z" fill="#20503c" opacity="0.4"/><path d="M1107 224 L1124 192 L1141 224 Z" fill="#20503c" opacity="0.4"/><path d="M1112 199 L1124 167 L1136 199 Z" fill="#20503c" opacity="0.4"/><path d="M1117 174 L1124 142 L1131 174 Z" fill="#20503c" opacity="0.4"/><rect x="1121" y="247" width="6" height="21" fill="#4a3728" opacity="0.4"/><path d="M1148 253 L1170 228 L1192 253 Z" fill="#20503c" opacity="0.4"/><path d="M1153 233 L1170 208 L1187 233 Z" fill="#20503c" opacity="0.4"/><path d="M1158 213 L1170 188 L1182 213 Z" fill="#20503c" opacity="0.4"/><path d="M1163 193 L1170 168 L1177 193 Z" fill="#20503c" opacity="0.4"/><rect x="1167" y="251" width="6" height="17" fill="#4a3728" opacity="0.4"/><path d="M-20 245 L10 208 L40 245 Z" fill="#1b4332" opacity="0.9"/><path d="M-13 215 L10 177 L33 215 Z" fill="#1b4332" opacity="0.9"/><path d="M-6 185 L10 147 L26 185 Z" fill="#1b4332" opacity="0.9"/><path d="M0 155 L10 117 L20 155 Z" fill="#1b4332" opacity="0.9"/><rect x="7" y="243" width="6" height="25" fill="#4a3728" opacity="0.9"/><path d="M42 242 L72 198 L102 242 Z" fill="#1b4332" opacity="0.9"/><path d="M49 207 L72 164 L95 207 Z" fill="#1b4332" opacity="0.9"/><path d="M56 172 L72 129 L88 172 Z" fill="#1b4332" opacity="0.9"/><path d="M62 138 L72 94 L82 138 Z" fill="#1b4332" opacity="0.9"/><rect x="69" y="239" width="6" height="29" fill="#4a3728" opacity="0.9"/><path d="M104 248 L134 215 L164 248 Z" fill="#276749" opacity="0.9"/><path d="M111 222 L134 189 L157 222 Z" fill="#276749" opacity="0.9"/><path d="M118 195 L134 162 L150 195 Z" fill="#276749" opacity="0.9"/><path d="M124 169 L134 136 L144 169 Z" fill="#276749" opacity="0.9"/><rect x="131" y="246" width="6" height="22" fill="#4a3728" opacity="0.9"/><path d="M166 242 L196 199 L226 242 Z" fill="#2d6a4f" opacity="0.9"/><path d="M173 208 L196 165 L219 208 Z" fill="#2d6a4f" opacity="0.9"/><path d="M180 174 L196 131 L212 174 Z" fill="#2d6a4f" opacity="0.9"/><path d="M186 139 L196 96 L206 139 Z" fill="#2d6a4f" opacity="0.9"/><rect x="193" y="239" width="6" height="29" fill="#4a3728" opacity="0.9"/><rect x="255" y="179" width="6" height="89" fill="#4a3728" opacity="0.88"/><ellipse cx="258" cy="179" rx="25" ry="21" fill="#40916c" opacity="0.88"/><ellipse cx="247" cy="184" rx="14" ry="12" fill="#40916c" opacity="0.88"/><ellipse cx="269" cy="183" rx="13" ry="11" fill="#40916c" opacity="0.88"/><path d="M910 245 L940 207 L970 245 Z" fill="#1b4332" opacity="0.9"/><path d="M917 214 L940 176 L963 214 Z" fill="#1b4332" opacity="0.9"/><path d="M924 184 L940 145 L956 184 Z" fill="#1b4332" opacity="0.9"/><path d="M930 153 L940 114 L950 153 Z" fill="#1b4332" opacity="0.9"/><rect x="937" y="242" width="6" height="26" fill="#4a3728" opacity="0.9"/><rect x="999" y="165" width="6" height="103" fill="#4a3728" opacity="0.88"/><ellipse cx="1002" cy="165" rx="25" ry="21" fill="#40916c" opacity="0.88"/><ellipse cx="991" cy="170" rx="14" ry="12" fill="#40916c" opacity="0.88"/><ellipse cx="1013" cy="169" rx="13" ry="11" fill="#40916c" opacity="0.88"/><path d="M1034 244 L1064 203 L1094 244 Z" fill="#40916c" opacity="0.9"/><path d="M1041 211 L1064 171 L1087 211 Z" fill="#40916c" opacity="0.9"/><path d="M1048 179 L1064 138 L1080 179 Z" fill="#40916c" opacity="0.9"/><path d="M1054 146 L1064 106 L1074 146 Z" fill="#40916c" opacity="0.9"/><rect x="1061" y="241" width="6" height="27" fill="#4a3728" opacity="0.9"/><rect x="1123" y="197" width="6" height="71" fill="#4a3728" opacity="0.88"/><ellipse cx="1126" cy="197" rx="25" ry="21" fill="#276749" opacity="0.88"/><ellipse cx="1115" cy="202" rx="14" ry="12" fill="#276749" opacity="0.88"/><ellipse cx="1137" cy="201" rx="13" ry="11" fill="#276749" opacity="0.88"/><path d="M1158 243 L1188 201 L1218 243 Z" fill="#2d6a4f" opacity="0.9"/><path d="M1165 209 L1188 167 L1211 209 Z" fill="#2d6a4f" opacity="0.9"/><path d="M1172 176 L1188 134 L1204 176 Z" fill="#2d6a4f" opacity="0.9"/><path d="M1178 142 L1188 100 L1198 142 Z" fill="#2d6a4f" opacity="0.9"/><rect x="1185" y="240" width="6" height="28" fill="#4a3728" opacity="0.9"/>
<g stroke="#1d140b" stroke-width="1" opacity="0.33"><line x1="0" y1="284" x2="1200" y2="284"/><line x1="0" y1="301" x2="1200" y2="301"/><line x1="0" y1="318" x2="1200" y2="318"/><line x1="0" y1="335" x2="1200" y2="335"/><line x1="0" y1="352" x2="1200" y2="352"/></g>
<g opacity="0.95"><rect x="222" y="150" width="16" height="188" rx="3" fill="#e8e2d5" stroke="#8a836f" stroke-width="1.5"/><rect x="222" y="268" width="16" height="70" fill="#3d2c1a" opacity="0.92"/><rect x="222" y="150" width="16" height="18" fill="#c9c2b0"/></g><g stroke="#ffd166" stroke-width="3" fill="none" opacity="0.9"><ellipse cx="985" cy="214" rx="26" ry="8"/></g><text x="985" y="196" text-anchor="middle" font-family="Helvetica, Arial, sans-serif" font-size="12" font-weight="600" fill="#ffd166">DBH 1.3 m</text>
<rect x="40" y="28" width="198" height="32" rx="16" fill="#12331f" opacity="0.6"/>
<text x="139" y="49" text-anchor="middle" font-family="Helvetica, Arial, sans-serif" font-size="13" font-weight="600" letter-spacing="1" fill="#eaf7ef">SECTION 3 OF 4</text>
<text x="600" y="190" text-anchor="middle" font-family="Helvetica, Arial, sans-serif" font-size="46" font-weight="600" fill="#ffffff">Field Methods</text>
<text x="600" y="224" text-anchor="middle" font-family="Helvetica, Arial, sans-serif" font-size="17" letter-spacing="1" fill="#dff0e4">MEASURING TREES &#8226; SAMPLING SOIL &#8226; SURVEYING UNDERSTORY</text>
</svg>
